<svg width="56" height="56" viewBox="0 0 56 56" fill="none" xmlns="http://www.w3.org/2000/svg">
<path d="M50.3493 26.4753C48.8759 23.9199 40.7722 11.0966 27.005 11.511C14.2738 11.8333 6.90681 23.022 4.9039 26.4753C4.70184 26.8253 4.59546 27.2223 4.59546 27.6264C4.59546 28.0306 4.70184 28.4276 4.9039 28.7775C6.35428 31.2869 14.1127 43.7418 27.6726 43.7418H28.2482C40.9794 43.4195 48.3694 32.2308 50.3493 28.7775C50.5514 28.4276 50.6577 28.0306 50.6577 27.6264C50.6577 27.2223 50.5514 26.8253 50.3493 26.4753ZM28.1331 39.1374C18.2106 39.3677 11.7414 30.8725 9.71549 27.6264C12.0177 23.9199 18.0264 16.3457 27.2352 16.1154C37.1117 15.8622 43.6039 24.3803 45.6528 27.6264C43.2816 31.333 37.3419 38.9072 28.1331 39.1374Z" fill="#205295"/>
<path d="M27.6263 19.5687C26.0326 19.5687 24.4748 20.0413 23.1497 20.9267C21.8246 21.8121 20.7918 23.0705 20.182 24.5429C19.5721 26.0152 19.4125 27.6354 19.7234 29.1984C20.0343 30.7614 20.8018 32.1972 21.9287 33.3241C23.0555 34.451 24.4913 35.2184 26.0543 35.5293C27.6174 35.8402 29.2375 35.6806 30.7099 35.0708C32.1822 34.4609 33.4406 33.4281 34.326 32.103C35.2114 30.778 35.684 29.2201 35.684 27.6264C35.684 25.4894 34.8351 23.4399 33.324 21.9288C31.8128 20.4177 29.7633 19.5687 27.6263 19.5687ZM27.6263 31.0797C26.9433 31.0797 26.2756 30.8772 25.7078 30.4977C25.1399 30.1183 24.6972 29.579 24.4359 28.9479C24.1745 28.3169 24.1061 27.6226 24.2394 26.9527C24.3726 26.2828 24.7015 25.6675 25.1845 25.1846C25.6674 24.7016 26.2827 24.3727 26.9526 24.2395C27.6225 24.1062 28.3168 24.1746 28.9478 24.436C29.5788 24.6974 30.1182 25.14 30.4976 25.7079C30.8771 26.2758 31.0796 26.9434 31.0796 27.6264C31.0796 28.5423 30.7158 29.4207 30.0682 30.0683C29.4205 30.7159 28.5422 31.0797 27.6263 31.0797Z" fill="#205295"/>
</svg>
