<svg width="56" height="56" viewBox="0 0 56 56" fill="none" xmlns="http://www.w3.org/2000/svg">
<path d="M10.8439 7.57415C10.6292 7.3595 10.3744 7.18923 10.0939 7.07306C9.81348 6.95689 9.51289 6.89709 9.20932 6.89709C8.90576 6.89709 8.60516 6.95689 8.32471 7.07306C8.04425 7.18923 7.78942 7.3595 7.57476 7.57415C7.14125 8.00767 6.89771 8.59563 6.89771 9.20871C6.89771 9.82179 7.14125 10.4098 7.57476 10.8433L20.5361 23.8047C19.7161 25.3301 19.4094 27.0792 19.6615 28.7927C19.9136 30.5062 20.7111 32.0928 21.9357 33.3175C23.1604 34.5421 24.747 35.3396 26.4605 35.5917C28.174 35.8438 29.9231 35.5371 31.4486 34.7171L44.41 47.6785C44.624 47.8942 44.8786 48.0655 45.1591 48.1824C45.4397 48.2993 45.7406 48.3595 46.0445 48.3595C46.3484 48.3595 46.6493 48.2993 46.9299 48.1824C47.2104 48.0655 47.4651 47.8942 47.6791 47.6785C47.8949 47.4644 48.0661 47.2098 48.183 46.9293C48.2999 46.6487 48.3601 46.3478 48.3601 46.0439C48.3601 45.74 48.2999 45.4391 48.183 45.1585C48.0661 44.878 47.8949 44.6234 47.6791 44.4093L10.8439 7.57415ZM27.6269 31.0796C26.711 31.0796 25.8327 30.7158 25.1851 30.0682C24.5374 29.4205 24.1736 28.5422 24.1736 27.6263C24.1736 27.6263 24.1736 27.5112 24.1736 27.4652L27.7651 31.0566L27.6269 31.0796Z" fill="#205295"/>
<path d="M28.1331 39.1374C18.2336 39.3676 11.7414 30.8725 9.71549 27.6264C11.1578 25.3258 12.8911 23.221 14.8724 21.3644L11.5112 18.1183C8.91277 20.5666 6.68674 23.3821 4.9039 26.4753C4.70184 26.8252 4.59546 27.2222 4.59546 27.6264C4.59546 28.0305 4.70184 28.4275 4.9039 28.7775C6.35428 31.2869 14.1127 43.7418 27.6726 43.7418H28.2482C30.798 43.6661 33.3148 43.1441 35.6843 42.1993L32.0468 38.5618C30.7677 38.8983 29.455 39.0914 28.1331 39.1374Z" fill="#205295"/>
<path d="M50.349 26.4753C48.8756 23.9199 40.7488 11.0966 27.0047 11.511C24.4549 11.5867 21.9381 12.1087 19.5686 13.0535L23.2061 16.691C24.4853 16.3545 25.7979 16.1614 27.1198 16.1154C36.9963 15.8622 43.4885 24.3803 45.5374 27.6264C44.0595 29.9339 42.2873 32.039 40.2654 33.8884L43.7417 37.1345C46.3727 34.6926 48.6301 31.8768 50.4411 28.7775C50.6293 28.4195 50.7199 28.0182 50.7038 27.6141C50.6876 27.2099 50.5652 26.8172 50.349 26.4753Z" fill="#205295"/>
</svg>
