<svg width="169" height="47" viewBox="0 0 169 47" fill="none" xmlns="http://www.w3.org/2000/svg">
<path d="M35.152 6.928C38.48 6.928 41.12 7.936 43.072 9.952C45.056 11.968 46.048 14.768 46.048 18.352V34H37.888V19.456C37.888 17.728 37.424 16.4 36.496 15.472C35.6 14.512 34.352 14.032 32.752 14.032C31.152 14.032 29.888 14.512 28.96 15.472C28.064 16.4 27.616 17.728 27.616 19.456V34H19.456V19.456C19.456 17.728 18.992 16.4 18.064 15.472C17.168 14.512 15.92 14.032 14.32 14.032C12.72 14.032 11.456 14.512 10.528 15.472C9.632 16.4 9.184 17.728 9.184 19.456V34H0.976V7.216H9.184V10.576C10.016 9.456 11.104 8.576 12.448 7.936C13.792 7.264 15.312 6.928 17.008 6.928C19.024 6.928 20.816 7.36 22.384 8.224C23.984 9.088 25.232 10.32 26.128 11.92C27.056 10.448 28.32 9.248 29.92 8.32C31.52 7.392 33.264 6.928 35.152 6.928ZM79.1485 7.216L62.3485 46.72H53.5165L59.6605 33.088L48.7645 7.216H57.9325L64.1245 23.968L70.2685 7.216H79.1485ZM99.3006 34L92.2926 21.28H90.3246V34H82.1166V0.303999H95.8926C98.5486 0.303999 100.805 0.767999 102.661 1.696C104.549 2.624 105.957 3.904 106.885 5.536C107.813 7.136 108.277 8.928 108.277 10.912C108.277 13.152 107.637 15.152 106.357 16.912C105.109 18.672 103.253 19.92 100.789 20.656L108.565 34H99.3006ZM90.3246 15.472H95.4126C96.9166 15.472 98.0366 15.104 98.7726 14.368C99.5406 13.632 99.9246 12.592 99.9246 11.248C99.9246 9.968 99.5406 8.96 98.7726 8.224C98.0366 7.488 96.9166 7.12 95.4126 7.12H90.3246V15.472ZM137.669 0.303999V6.88H128.741V34H120.533V6.88H111.605V0.303999H137.669ZM162.189 16.72C164.141 17.136 165.709 18.112 166.893 19.648C168.077 21.152 168.669 22.88 168.669 24.832C168.669 27.648 167.677 29.888 165.693 31.552C163.741 33.184 161.005 34 157.485 34H141.789V0.303999H156.957C160.381 0.303999 163.053 1.088 164.973 2.656C166.925 4.224 167.901 6.352 167.901 9.04C167.901 11.024 167.373 12.672 166.317 13.984C165.293 15.296 163.917 16.208 162.189 16.72ZM149.997 13.936H155.373C156.717 13.936 157.741 13.648 158.445 13.072C159.181 12.464 159.549 11.584 159.549 10.432C159.549 9.28 159.181 8.4 158.445 7.792C157.741 7.184 156.717 6.88 155.373 6.88H149.997V13.936ZM156.045 27.376C157.421 27.376 158.477 27.072 159.213 26.464C159.981 25.824 160.365 24.912 160.365 23.728C160.365 22.544 159.965 21.616 159.165 20.944C158.397 20.272 157.325 19.936 155.949 19.936H149.997V27.376H156.045Z" fill="#205295"/>
</svg>
