<svg width="18" height="18" viewBox="0 0 18 18" fill="none" xmlns="http://www.w3.org/2000/svg">
<path d="M2.67459 0.43691L8.96903 6.68311L15.2309 0.469274C15.3692 0.32318 15.5358 0.20631 15.7207 0.125672C15.9057 0.0450338 16.1051 0.00228867 16.3071 0C16.7396 0 17.1544 0.170487 17.4602 0.473956C17.766 0.777424 17.9378 1.18902 17.9378 1.61819C17.9416 1.81658 17.9045 2.01365 17.8288 2.1973C17.7531 2.38096 17.6404 2.54732 17.4975 2.68619L11.1542 8.90002L17.4975 15.1948C17.7663 15.4557 17.9239 15.809 17.9378 16.1819C17.9378 16.611 17.766 17.0226 17.4602 17.3261C17.1544 17.6296 16.7396 17.8 16.3071 17.8C16.0993 17.8086 15.8919 17.7742 15.6982 17.699C15.5045 17.6237 15.3287 17.5094 15.1819 17.3631L8.96903 11.1169L2.6909 17.347C2.55311 17.4882 2.38851 17.6009 2.20659 17.6787C2.02466 17.7565 1.82902 17.7977 1.63095 17.8C1.19847 17.8 0.783695 17.6296 0.477882 17.3261C0.172069 17.0226 0.000265323 16.611 0.000265323 16.1819C-0.00353661 15.9835 0.0335564 15.7864 0.109268 15.6027C0.18498 15.4191 0.297714 15.2527 0.44055 15.1139L6.78391 8.90002L0.44055 2.60528C0.171789 2.34436 0.0141907 1.99104 0.000265323 1.61819C0.000265323 1.18902 0.172069 0.777424 0.477882 0.473956C0.783695 0.170487 1.19847 0 1.63095 0C2.02231 0.00485456 2.39737 0.161819 2.67459 0.43691Z" fill="#133A6D"/>
</svg>
