<svg width="27" height="25" viewBox="0 0 27 25" fill="none" xmlns="http://www.w3.org/2000/svg">
<path d="M16.7397 7.05263H16.7529M13.4606 22.7895H4.93494C3.89133 22.7895 2.89046 22.4069 2.15252 21.7258C1.41457 21.0448 1 20.121 1 19.1579V4.63158C1 3.66842 1.41457 2.74472 2.15252 2.06366C2.89046 1.38261 3.89133 1 4.93494 1H20.6747C21.7183 1 22.7192 1.38261 23.4571 2.06366C24.195 2.74472 24.6096 3.66842 24.6096 4.63158V12.5" stroke="#205295" stroke-width="2" stroke-linecap="round" stroke-linejoin="round"/>
<path d="M1 16.7368L7.55823 10.6842C8.77543 9.60321 10.276 9.60321 11.4932 10.6842L16.0839 14.9211" stroke="#205295" stroke-width="2" stroke-linecap="round" stroke-linejoin="round"/>
<path d="M15.4277 14.3158L16.7394 13.1053C17.63 12.3148 18.6714 12.1017 19.6434 12.4685M21.986 24V16.7368M21.986 16.7368L25.9209 20.3684M21.986 16.7368L18.051 20.3684" stroke="#205295" stroke-width="2" stroke-linecap="round" stroke-linejoin="round"/>
</svg>
